STARTFONT 2.1
FONT HAN-GB2312
SIZE 14 72 72
FONTBOUNDINGBOX 9 14 0 0
STARTPROPERTIES 1
BITCOUNT 8
ENDPROPERTIES
CHARS 22
STARTCHAR  00A7
ENCODING  167
SWIDTH  1000 0
DWIDTH  6 0
BBX  6 12 0 -2
BITMAP
0030C0C0C020
00C0300020A0
00C030000040
0080E0400000
A06010A0A000
E030000060A0
60E0200000C0
0040E0406080
000010C0C000
00600010E000
00C02010C000
0020C0C04000
ENDCHAR
STARTCHAR  00A8
ENCODING  168
SWIDTH  1000 0
DWIDTH  6 0
BBX  5 3 1 7
BITMAP
E08080E000
8060408030
0040002020
ENDCHAR
STARTCHAR  00B1
ENCODING  177
SWIDTH  1000 0
DWIDTH  5 0
BBX  6 7 -1 1
BITMAP
000000A00000
000000A00000
00A0A0E0A0A0
000000A00000
000000A00000
000000200000
008080808080
ENDCHAR
STARTCHAR  00B7
ENCODING  183
SWIDTH  1000 0
DWIDTH  7 0
BBX  6 6 1 1
BITMAP
30E0F0A00000
E0FFFFFF6000
FFFFFFFF8010
C0FFFFFF3060
1080A0408040
001040806000
ENDCHAR
STARTCHAR  00E0
ENCODING  224
SWIDTH  1000 0
DWIDTH  15 0
BBX  14 14 1 0
BITMAP
00000000A0FFE040000000000000
0000000000A0FFA0400000000000
00000000000080FF602000000000
0000000000000020404000000000
0000000020FFFFF0400000000000
0000000080FFFFFF604000000000
00000010F0E0C0FFC04000000000
00000060FF6080FFFF4030000000
000000E0FFFFFFFFFF8040000000
000040FF80404060FFF040100000
0000C0FF20303030F0FF60400000
A0A0FFF0A06040A0E0FFE0A06010
FFFFFFFFFFA0A0FFFFFFFFFFC030
2040404040404040404040404040
ENDCHAR
STARTCHAR  00E1
ENCODING  225
SWIDTH  1000 0
DWIDTH  15 0
BBX  14 14 1 0
BITMAP
000000000020E0F0601000000000
0000000010E0F040600000000000
00000000A0F04040000000000000
0000000030304000000000000000
0000000020FFFFF0400000000000
0000000080FFFFFF604000000000
00000010F0E0C0FFC04000000000
00000060FF6080FFFF4030000000
000000E0FFFFFFFFFF8040000000
000040FF80404060FFF040100000
0000C0FF20303030F0FF60400000
A0A0FFF0A06040A0E0FFE0A06010
FFFFFFFFFFA0A0FFFFFFFFFFC030
2040404040404040404040404040
ENDCHAR
STARTCHAR  00E8
ENCODING  232
SWIDTH  1000 0
DWIDTH  11 0
BBX  11 14 0 0
BITMAP
000060FFF0402000000000
00000060FFE04000000000
0000000040F0A030000000
0000000000104040100000
80FFFFFFFFFFFFFFFFFF30
60A0FFFFE0A0A0A0FFFF40
2040FFFFA0404040C0FF40
0000FFFFE0E0A010406040
0000FFFFFFFFE060304040
0000FFFFA0404040A0F030
0000FFFFA0300000E0FF40
40A0FFFFE0A0A0C0FFFF40
80FFFFFFFFFFFFFFFFFF40
1040404040404040404060
ENDCHAR
STARTCHAR  00E9
ENCODING  233
SWIDTH  1000 0
DWIDTH  11 0
BBX  11 14 0 0
BITMAP
0000000080FFE060000000
00000040FFE03040000000
000020F0C0304000000000
0000104030300000000000
80FFFFFFFFFFFFFFFFFF30
60A0FFFFE0A0A0A0FFFF40
2040FFFFA0404040C0FF40
0000FFFFE0E0A010406040
0000FFFFFFFFE060304040
0000FFFFA0404040A0F030
0000FFFFA0300000E0FF40
40A0FFFFE0A0A0C0FFFF40
80FFFFFFFFFFFFFFFFFF40
1040404040404040404060
ENDCHAR
STARTCHAR  00EA
ENCODING  234
SWIDTH  1000 0
DWIDTH  11 0
BBX  11 14 0 0
BITMAP
000000C0FFF06020000000
000080FFA0F0E060100000
0060FF606040E0E0600000
0010304000000030403000
80FFFFFFFFFFFFFFFFFF30
60A0FFFFE0A0A0A0FFFF40
2040FFFFA0404040C0FF40
0000FFFFE0E0A010406040
0000FFFFFFFFE060304040
0000FFFFA0404040A0F030
0000FFFFA0300000E0FF40
40A0FFFFE0A0A0C0FFFF40
80FFFFFFFFFFFFFFFFFF40
1040404040404040404060
ENDCHAR
STARTCHAR  00EC
ENCODING  236
SWIDTH  1000 0
DWIDTH  9 0
BBX  8 14 1 0
BITMAP
40FFF04010000000
0060FFC040000000
000060FF80400000
0000002040402000
FFFFFFFFFFFFA030
A080FFFFE0806040
2040FFFFA0406040
0000FFFFA0400000
0000FFFFA0400000
0000FFFFA0400000
0000FFFFA0400000
A0A0FFFFE0A06000
FFFFFFFFFFFFA040
4040404040404060
ENDCHAR
STARTCHAR  00ED
ENCODING  237
SWIDTH  1000 0
DWIDTH  9 0
BBX  8 14 1 0
BITMAP
0000A0FFC0400000
0060FFC020400000
20F0C01040000000
2030104000000000
FFFFFFFFFFFFA030
A080FFFFE0806040
2040FFFFA0406040
0000FFFFA0400000
0000FFFFA0400000
0000FFFFA0400000
0000FFFFA0400000
A0A0FFFFE0A06000
FFFFFFFFFFFFA040
4040404040404060
ENDCHAR
STARTCHAR  00F2
ENCODING  242
SWIDTH  1000 0
DWIDTH  13 0
BBX  12 15 1 0
BITMAP
000040808010000000000000
000010C0FFA0400000000000
00000000C0FF801000000000
000000000080606000000000
000000000010406010000000
000060C0F0F0E06000000000
00A0FFE08080E0FFA0000000
60FFE010403020E0FF601000
E0FF804000000080FFE01020
FFFF604000000060FFFF0030
F0FF603000000060FFF00020
A0FF803000000080FFC00020
30F0F060101040F0F0303000
0030C0FFFFFFFFC030301000
000020406060404040000000
ENDCHAR
STARTCHAR  00F3
ENCODING  243
SWIDTH  1000 0
DWIDTH  13 0
BBX  12 15 1 0
BITMAP
000000001080802000000000
00000000C0FF606000000000
00000080FF80303000000000
000000806010400000000000
000000600040000000000000
000060E0FFFFE06000000000
00A0FFE08080E0FFA0000000
60FFE010403020E0FF601000
E0FF804000000080FFE01020
FFFF604000000060FFFF0030
F0FF603000000060FFF00020
A0FF803000000080FFC00020
30F0F060101040F0F0303000
0030C0FFFFFFFFC030301000
000020406060404040000000
ENDCHAR
STARTCHAR  00F9
ENCODING  249
SWIDTH  1000 0
DWIDTH  14 0
BBX  13 15 1 0
BITMAP
00000040808020000000000000
00000000C0FFC0400000000000
0000000000A0FFA01000000000
00000000000080806000000000
00000000000000406010000000
FFFFFFFFFFFF60FFFFFFFFFF80
A080FFFFC08030A0C0FFA08060
3040FFFF6040606080FF204040
0000FFFF6030000060FF206000
0000FFFF6030000060FF206000
0000FFFF6030000060FF206000
0000E0FFC0402040C0F0006000
000030E0FFFFFFFFF060006000
00000020304040401000402000
00000000404040404060200000
ENDCHAR
STARTCHAR  00FA
ENCODING  250
SWIDTH  1000 0
DWIDTH  14 0
BBX  13 15 1 0
BITMAP
00000000000080804000000000
000000000080FFA04010000000
0000000040FFE0304000000000
00000000A08020400000000000
00000000104040000000000000
FFFFFFFFFFFF60FFFFFFFFFF80
A080FFFFC08030A0C0FFA08060
3040FFFF6040606080FF204040
0000FFFF6030000060FF206000
0000FFFF6030000060FF206000
0000FFFF6030000060FF206000
0000E0FFC0402040C0F0006000
000030E0FFFFFFFFF060006000
00000020304040401000402000
00000000404040404060200000
ENDCHAR
STARTCHAR  00FC
ENCODING  252
SWIDTH  1000 0
DWIDTH  14 0
BBX  13 13 1 0
BITMAP
00000000A0E030E01000000000
00000000608040A03000000000
00000000003010102000000000
FFFFFFFFFFFF60FFFFFFFFFF80
A080FFFFC08030A0C0FFA08060
3040FFFF6040606080FF204040
0000FFFF6030000060FF206000
0000FFFF6030000060FF206000
0000FFFF6030000060FF206000
0000E0FFC0402040C0F0006000
000030E0FFFFFFFFF060006000
00000020304040401000402000
00000000404040404060200000
ENDCHAR
STARTCHAR  2014
ENCODING  8212
SWIDTH  1000 0
DWIDTH  16 0
BBX  15 3 1 2
BITMAP
FFFFFFFFFFFFFFFFFFFFFFFFFFA030
808080808080808080808080804040
304040404040404040404040404040
ENDCHAR
STARTCHAR  2018
ENCODING  8216
SWIDTH  1000 0
DWIDTH  4 0
BBX  4 6 0 4
BITMAP
00403000
30F04020
80E04020
A0FFA030
80E08040
10303030
ENDCHAR
STARTCHAR  2019
ENCODING  8217
SWIDTH  1000 0
DWIDTH  4 0
BBX  4 6 0 4
BITMAP
10FFF020
10FFF030
0080E030
00C08040
00804000
00101000
ENDCHAR
STARTCHAR  201C
ENCODING  8220
SWIDTH  1000 0
DWIDTH  9 0
BBX  9 6 0 4
BITMAP
001060000000800000
00C080100080C02020
30FF401000F0806010
40FFF03000FFFF4030
30E0E04000E0E03040
003030400020303030
ENDCHAR
STARTCHAR  201D
ENCODING  8221
SWIDTH  1000 0
DWIDTH  8 0
BBX  8 6 0 4
BITMAP
A0FFE03080FFFF30
A0FFE03080FFFF30
40A0C0304080F030
10C0803000A0A030
60A0301040A03010
0030100000302000
ENDCHAR
STARTCHAR  2026
ENCODING  8230
SWIDTH  1000 0
DWIDTH  15 0
BBX  14 4 1 0
BITMAP
A0A0400000A0A040000060A06000
FFFF604000FFFFA00000A0FFFF00
FFFF603000FFFFA00000A0FFFF00
403030400040304000003030C000
ENDCHAR
ENDFONT
